# xmcd
#
# Track frame offsets: 
#        150
#        24145
#        45098
#        63524
#        76532
#        101416
#        111437
#        135284
#        152187
#        177219
#        191272
#        213772
#        229578
#        250769
#
# Disc length: 3452 seconds
#
# Revision: 0
# Processed by: cddbd v1.5.2PL0 Copyright (c) Steve Scherf et al.
# Submitted via: ExactAudioCopy v0.99pb4
#
DISCID=990d7a0e
DTITLE=Giles - Dancing With Dolores
DYEAR=2006
DGENRE=Blues-Rock 
TTITLE0=Maria Magdalena
TTITLE1=Freedom
TTITLE2=Letter To Bush
TTITLE3=Fallen Angel
TTITLE4=Dancing With Dolores
TTITLE5=Gypsy Eyes
TTITLE6=That's Why
TTITLE7=Mind Your Own Damn Business
TTITLE8=Wanna Come Home, Father
TTITLE9=Behind Your Eyes
TTITLE10=Just A Shell
TTITLE11=Nutbush City Limits
TTITLE12=Bird On The Wire
TTITLE13=Yearning
EXTD=
EXTT0=
EXTT1=
EXTT2=
EXTT3=
EXTT4=
EXTT5=
EXTT6=
EXTT7=
EXTT8=
EXTT9=
EXTT10=
EXTT11=
EXTT12=
EXTT13=
PLAYORDER=
